<svg width="1440" height="154" viewBox="0 0 1440 154" fill="none" xmlns="http://www.w3.org/2000/svg">
<path fill-rule="evenodd" clip-rule="evenodd" d="M152.665 34.389C307.277 36.3 483.021 -35.7625 597.958 61.3806C714.56 159.931 680.808 332.276 679.422 479.596C678.055 624.907 706.592 794.786 590.158 890.486C475.91 984.389 304.422 916.637 152.665 912.551C8.6138 908.673 -153.849 958.669 -260.447 867.588C-369.021 774.82 -346.632 617.276 -354.054 479.596C-362.11 330.13 -420.87 152.466 -304.504 50.2263C-188.737 -51.4878 -5.84818 32.4298 152.665 34.389Z" fill="#EDFBBA"/>
<path fill-rule="evenodd" clip-rule="evenodd" d="M1002.67 131.389C1157.28 133.3 1333.02 61.2375 1447.96 158.381C1564.56 256.931 1530.81 429.276 1529.42 576.596C1528.05 721.907 1556.59 891.786 1440.16 987.486C1325.91 1081.39 1154.42 1013.64 1002.67 1009.55C858.614 1005.67 696.151 1055.67 589.553 964.588C480.979 871.82 503.368 714.276 495.946 576.596C487.89 427.13 429.13 249.466 545.496 147.226C661.263 45.5122 844.152 129.43 1002.67 131.389Z" fill="#EDFBBA"/>
</svg>
